<svg width="27" height="24" viewBox="0 0 27 24" fill="none" xmlns="http://www.w3.org/2000/svg">
<path d="M15.2573 3.02852L15.2569 3.02899L14.218 4.09947L13.5004 4.83896L12.7828 4.09947L11.7439 3.02899L11.7428 3.0278C9.41909 0.625441 5.71267 0.295537 3.27069 2.37601L15.2573 3.02852ZM15.2573 3.02852C17.5869 0.624862 21.2885 0.295872 23.7301 2.37601C26.5965 4.8225 26.751 9.22744 24.1779 11.8828L24.1777 11.883M15.2573 3.02852L24.1777 11.883M24.1777 11.883L13.974 22.4189C13.7078 22.6937 13.2877 22.6937 13.0215 22.4189L2.8182 11.8834M24.1777 11.883L2.8182 11.8834M2.8182 11.8834L2.81778 11.883C0.249713 9.22758 0.404334 4.82261 3.27053 2.37615L2.8182 11.8834Z" stroke="#F7F7F8" stroke-width="2"/>
</svg>
