<svg width="28" height="24" viewBox="0 0 28 24" fill="none" xmlns="http://www.w3.org/2000/svg">
<path d="M24.7582 2.89605L24.7582 2.89608L24.7646 2.90268C26.9572 5.14478 27.0694 8.72968 25.1168 11.1405L13.9974 22.6005L2.8835 11.1461C0.931157 8.73084 1.04307 5.14845 3.23159 2.90653L3.35405 2.78406L3.3541 2.78411L3.36231 2.77571C5.37236 0.717904 8.48968 0.455552 10.8036 1.96993L11.9677 5.49054L7.53939 8.44273L6.52445 9.11935L7.38699 9.98189L14.9803 17.5752L16.6237 16.517L14.3713 10.5104L18.7732 7.57573L19.4078 7.15269L19.1676 6.42883L17.6056 1.71984C19.8646 0.48966 22.7396 0.834048 24.6351 2.7678L24.7582 2.89605Z" stroke="white" stroke-width="2"/>
</svg>
